<svg width="256" height="256" viewBox="0 0 256 256" fill="none" xmlns="http://www.w3.org/2000/svg">
          <g clip-path="url(#clip0_16_132)" id="base-svg-group">
            <path id="back-svg-group" fill-rule="evenodd" clip-rule="evenodd" d="M104.425 42.3784C100.056 37.0733 93.5437 34 86.6712 34H29C22.3726 34 17 39.3726 17 46V58.1371V68.2V160C17 166.627 22.3726 172 29 172H229C235.627 172 241 166.627 241 160V70.1371C241 63.5097 235.627 58.1371 229 58.1371H117.404L104.425 42.3784Z" fill="#FCBC19"/>
            <mask id="mask0_16_132" style="mask-type:alpha" maskUnits="userSpaceOnUse" x="17" y="34" width="224" height="138">
              <path id="back-svg-group" fill-rule="evenodd" clip-rule="evenodd" d="M104.425 42.3784C100.056 37.0733 93.5437 34 86.6712 34H29C22.3726 34 17 39.3726 17 46V58.1371V68.2V160C17 166.627 22.3726 172 29 172H229C235.627 172 241 166.627 241 160V70.1371C241 63.5097 235.627 58.1371 229 58.1371H117.404L104.425 42.3784Z" fill="url(#paint0_linear_16_132)"/>
            </mask>
            <g mask="url(#mask0_16_132)">
              <g style="mix-blend-mode:multiply" filter="url(#filter0_f_16_132)">
                <path fill-rule="evenodd" clip-rule="evenodd" d="M92.789 74C97.7642 74 102.605 72.3868 106.586 69.4024L116.459 62H229C235.627 62 241 67.3726 241 74V108V160C241 166.627 235.627 172 229 172H29C22.3726 172 17 166.627 17 160L17 108V86C17 79.3726 22.3726 74 29 74H87H92.789Z" fill="black" fill-opacity="0.3"/>
              </g>
            </g>
            <path id="front-svg-group" filter="url(#filter1_ii_16_132)" fill-rule="evenodd" clip-rule="evenodd" d="M92.789 74C97.7642 74 102.605 72.3868 106.586 69.4024L116.459 62H229C235.627 62 241 67.3726 241 74V108V198C241 204.627 235.627 210 229 210H29C22.3726 210 17 204.627 17 198L17 108V86C17 79.3726 22.3726 74 29 74H87H92.789Z" fill="url(#paint1_linear_16_132)"/>
          </g>
          <g id="custom-svg-container"><g class="custom-svg" transform="translate(82.55926040649413 99.56) scale(1.4800000000000002)">

<path fill-rule="evenodd" clip-rule="evenodd" d="M4.61677 0C4.61677 0 19.7692 17.7881 28.0042 17.7881C36.2392 17.7881 51.3916 4.08931e-06 51.3916 4.08931e-06C51.3916 4.08931e-06 37.8221 9.8823 28.0042 9.8823C18.1863 9.8823 4.61677 0 4.61677 0ZM51.3901 56C51.3901 56 36.2377 38.2118 28.0027 38.2118C19.7677 38.2118 4.61525 56 4.61525 56C4.61525 56 18.1847 46.1177 28.0027 46.1177C37.8206 46.1177 51.3901 56 51.3901 56ZM17.7876 27.9998C17.7876 36.235 0 51.3878 0 51.3878C0 51.3878 9.88201 37.818 9.88201 27.9998C9.88201 18.1815 2.04459e-06 4.61166 2.04459e-06 4.61166C2.04459e-06 4.61166 17.7876 19.7645 17.7876 27.9998ZM56.001 4.61153C56.001 4.61153 38.2134 19.7644 38.2134 27.9996C38.2134 36.2349 56.001 51.3877 56.001 51.3877C56.001 51.3877 46.119 37.8178 46.119 27.9996C46.119 18.1814 56.001 4.61153 56.001 4.61153Z" fill="url(#paint0_linear_237_2356)" transform="skewX(0) skewY(0)"/>
<defs transform="skewX(0) skewY(0)">
<linearGradient id="paint0_linear_237_2356" x1="37" y1="13" x2="21" y2="41" gradientUnits="userSpaceOnUse" transform="skewX(0) skewY(0)">
<stop offset="0.005" stop-color="#FAC515" transform="skewX(0) skewY(0)"/>
<stop offset="0.455" stop-color="#FD6F8E" transform="skewX(0) skewY(0)"/>
<stop offset="1" stop-color="#53389E" transform="skewX(0) skewY(0)"/>
</linearGradient>
</defs>
</g></g>
          <defs>
            <filter id="filter0_f_16_132" x="-20" y="25" width="298" height="184" filterUnits="userSpaceOnUse" color-interpolation-filters="sRGB">
              <feFlood flood-opacity="0" result="BackgroundImageFix"/>
              <feBlend mode="normal" in="SourceGraphic" in2="BackgroundImageFix" result="shape"/>
              <feGaussianBlur stdDeviation="18.5" result="effect1_foregroundBlur_16_132"/>
            </filter>
            <filter id="filter1_ii_16_132" x="17" y="62" width="224" height="148" filterUnits="userSpaceOnUse" color-interpolation-filters="sRGB">
              <feFlood flood-opacity="0" result="BackgroundImageFix"/>
              <feBlend mode="normal" in="SourceGraphic" in2="BackgroundImageFix" result="shape"/>
              <feColorMatrix in="SourceAlpha" type="matrix" values="0 0 0 0 0 0 0 0 0 0 0 0 0 0 0 0 0 0 127 0" result="hardAlpha"/>
              <feOffset dy="4"/>
              <feComposite in2="hardAlpha" operator="arithmetic" k2="-1" k3="1"/>
              <feColorMatrix type="matrix" values="0 0 0 0 1 0 0 0 0 1 0 0 0 0 1 0 0 0 0.25 0"/>
              <feBlend mode="normal" in2="shape" result="effect1_innerShadow_16_132"/>
              <feColorMatrix in="SourceAlpha" type="matrix" values="0 0 0 0 0 0 0 0 0 0 0 0 0 0 0 0 0 0 127 0" result="hardAlpha"/>
              <feOffset dy="-4"/>
              <feComposite in2="hardAlpha" operator="arithmetic" k2="-1" k3="1"/>
              <feColorMatrix type="matrix" values="0 0 0 0 0 0 0 0 0 0 0 0 0 0 0 0 0 0 0.9 0"/>
              <feBlend mode="soft-light" in2="effect1_innerShadow_16_132" result="effect2_innerShadow_16_132"/>
            </filter>
            <linearGradient id="paint0_linear_16_132" x1="17" y1="34" x2="197.768" y2="215.142" gradientUnits="userSpaceOnUse">
              <stop stop-color="#FFE7A2"/>
              <stop offset="1" stop-color="#FFCB3D"/>
            </linearGradient>
            <linearGradient id="paint1_linear_16_132" x1="17" y1="62" x2="241" y2="210" gradientUnits="userSpaceOnUse">
              <stop stop-color="#FFE7A2"/>
              <stop offset="0.953125" stop-color="#FFCB3D"/>
            </linearGradient>
          </defs>
        </svg>